%TF.GenerationSoftware,KiCad,Pcbnew,9.0.6-r1*%
%TF.CreationDate,2025-12-20T23:12:14+08:00*%
%TF.ProjectId,H750XB_V2,48373530-5842-45f5-9632-2e6b69636164,rev?*%
%TF.SameCoordinates,Original*%
%TF.FileFunction,Legend,Bot*%
%TF.FilePolarity,Positive*%
%FSLAX46Y46*%
G04 Gerber Fmt 4.6, Leading zero omitted, Abs format (unit mm)*
G04 Created by KiCad (PCBNEW 9.0.6-r1) date 2025-12-20 23:12:14*
%MOMM*%
%LPD*%
G01*
G04 APERTURE LIST*
G04 Aperture macros list*
%AMRoundRect*
0 Rectangle with rounded corners*
0 $1 Rounding radius*
0 $2 $3 $4 $5 $6 $7 $8 $9 X,Y pos of 4 corners*
0 Add a 4 corners polygon primitive as box body*
4,1,4,$2,$3,$4,$5,$6,$7,$8,$9,$2,$3,0*
0 Add four circle primitives for the rounded corners*
1,1,$1+$1,$2,$3*
1,1,$1+$1,$4,$5*
1,1,$1+$1,$6,$7*
1,1,$1+$1,$8,$9*
0 Add four rect primitives between the rounded corners*
20,1,$1+$1,$2,$3,$4,$5,0*
20,1,$1+$1,$4,$5,$6,$7,0*
20,1,$1+$1,$6,$7,$8,$9,0*
20,1,$1+$1,$8,$9,$2,$3,0*%
G04 Aperture macros list end*
%ADD10C,0.120000*%
%ADD11C,0.254000*%
%ADD12C,0.000000*%
%ADD13RoundRect,0.135000X0.185000X-0.135000X0.185000X0.135000X-0.185000X0.135000X-0.185000X-0.135000X0*%
%ADD14RoundRect,0.100000X0.100000X-0.130000X0.100000X0.130000X-0.100000X0.130000X-0.100000X-0.130000X0*%
%ADD15RoundRect,0.100000X-0.100000X0.130000X-0.100000X-0.130000X0.100000X-0.130000X0.100000X0.130000X0*%
%ADD16RoundRect,0.100000X0.130000X0.100000X-0.130000X0.100000X-0.130000X-0.100000X0.130000X-0.100000X0*%
%ADD17RoundRect,0.225000X-0.250000X0.225000X-0.250000X-0.225000X0.250000X-0.225000X0.250000X0.225000X0*%
%ADD18RoundRect,0.100000X-0.130000X-0.100000X0.130000X-0.100000X0.130000X0.100000X-0.130000X0.100000X0*%
%ADD19RoundRect,0.100000X0.021213X0.162635X-0.162635X-0.021213X-0.021213X-0.162635X0.162635X0.021213X0*%
%ADD20RoundRect,0.100000X0.162635X-0.021213X-0.021213X0.162635X-0.162635X0.021213X0.021213X-0.162635X0*%
%ADD21RoundRect,0.140000X0.140000X0.170000X-0.140000X0.170000X-0.140000X-0.170000X0.140000X-0.170000X0*%
%ADD22RoundRect,0.140000X-0.170000X0.140000X-0.170000X-0.140000X0.170000X-0.140000X0.170000X0.140000X0*%
%ADD23RoundRect,0.140000X0.170000X-0.140000X0.170000X0.140000X-0.170000X0.140000X-0.170000X-0.140000X0*%
%ADD24R,0.500000X2.000000*%
G04 APERTURE END LIST*
D10*
%TO.C,R1*%
X10128800Y17246359D02*
X10128800Y17553641D01*
X9368800Y17246359D02*
X9368800Y17553641D01*
%TO.C,C60*%
X7238800Y20940580D02*
X7238800Y20659420D01*
X8258800Y20940580D02*
X8258800Y20659420D01*
%TO.C,C14*%
X16656636Y18560000D02*
X16440964Y18560000D01*
X16656636Y17840000D02*
X16440964Y17840000D01*
%TO.C,C3*%
X8588800Y21107836D02*
X8588800Y20892164D01*
X9308800Y21107836D02*
X9308800Y20892164D01*
%TO.C,C9*%
X12058800Y8892164D02*
X12058800Y9107836D01*
X11338800Y8892164D02*
X11338800Y9107836D01*
%TO.C,C6*%
X16656636Y19560000D02*
X16440964Y19560000D01*
X16656636Y18840000D02*
X16440964Y18840000D01*
D11*
%TO.C,CN1*%
X2935000Y29598000D02*
X14000Y29598000D01*
X14000Y29598000D02*
X14000Y23502000D01*
X14000Y23502000D02*
X2935000Y23502000D01*
X27065000Y23502000D02*
X29986000Y23502000D01*
X29986000Y23502000D02*
X29986000Y29598000D01*
X29986000Y29598000D02*
X27065000Y29598000D01*
D12*
G36*
X2427000Y23756000D02*
G01*
X1627000Y23756000D01*
X2027000Y24956000D01*
X2427000Y23756000D01*
G37*
D11*
%TO.C,CN3*%
X2935000Y6498000D02*
X14000Y6498000D01*
X14000Y6498000D02*
X14000Y402000D01*
X14000Y402000D02*
X2935000Y402000D01*
X27065000Y402000D02*
X29986000Y402000D01*
X29986000Y402000D02*
X29986000Y6498000D01*
X29986000Y6498000D02*
X27065000Y6498000D01*
D12*
G36*
X2427000Y656000D02*
G01*
X1627000Y656000D01*
X2027000Y1856000D01*
X2427000Y656000D01*
G37*
%TD*%
%LPC*%
D13*
%TO.C,R1*%
X9748800Y16890000D03*
X9748800Y17910000D03*
%TD*%
D14*
%TO.C,C64*%
X21748800Y7835000D03*
X21748800Y8475000D03*
%TD*%
D15*
%TO.C,C61*%
X3698800Y21320000D03*
X3698800Y20680000D03*
%TD*%
D16*
%TO.C,C59*%
X16868800Y20200000D03*
X16228800Y20200000D03*
%TD*%
D14*
%TO.C,C62*%
X26448800Y7860000D03*
X26448800Y8500000D03*
%TD*%
%TO.C,C58*%
X13298800Y8680000D03*
X13298800Y9320000D03*
%TD*%
D17*
%TO.C,C60*%
X7748800Y21575000D03*
X7748800Y20025000D03*
%TD*%
D15*
%TO.C,C52*%
X28148800Y19920000D03*
X28148800Y19280000D03*
%TD*%
D18*
%TO.C,C51*%
X22628800Y21600000D03*
X23268800Y21600000D03*
%TD*%
D19*
%TO.C,C50*%
X27975074Y12626274D03*
X27522526Y12173726D03*
%TD*%
D16*
%TO.C,C39*%
X26523800Y11200000D03*
X25883800Y11200000D03*
%TD*%
%TO.C,C44*%
X26523800Y12000000D03*
X25883800Y12000000D03*
%TD*%
D18*
%TO.C,C48*%
X22994800Y12000000D03*
X23634800Y12000000D03*
%TD*%
D14*
%TO.C,C43*%
X21748800Y19280000D03*
X21748800Y19920000D03*
%TD*%
D15*
%TO.C,C42*%
X25648800Y14400000D03*
X25648800Y13760000D03*
%TD*%
%TO.C,C45*%
X21748800Y14320000D03*
X21748800Y13680000D03*
%TD*%
D20*
%TO.C,C34*%
X12975074Y12573726D03*
X12522526Y13026274D03*
%TD*%
D16*
%TO.C,C30*%
X13268800Y16200000D03*
X12628800Y16200000D03*
%TD*%
D15*
%TO.C,C31*%
X12948800Y17720000D03*
X12948800Y17080000D03*
%TD*%
D14*
%TO.C,C35*%
X10948800Y12280000D03*
X10948800Y12920000D03*
%TD*%
D16*
%TO.C,C28*%
X13268800Y14600000D03*
X12628800Y14600000D03*
%TD*%
D18*
%TO.C,C37*%
X26628800Y21600000D03*
X27268800Y21600000D03*
%TD*%
%TO.C,C33*%
X7828800Y14200000D03*
X8468800Y14200000D03*
%TD*%
%TO.C,C32*%
X7828800Y16200000D03*
X8468800Y16200000D03*
%TD*%
D16*
%TO.C,C29*%
X13268800Y13800000D03*
X12628800Y13800000D03*
%TD*%
D18*
%TO.C,C24*%
X7828800Y15400000D03*
X8468800Y15400000D03*
%TD*%
D15*
%TO.C,C22*%
X10548800Y17720000D03*
X10548800Y17080000D03*
%TD*%
D18*
%TO.C,C18*%
X7828800Y12600000D03*
X8468800Y12600000D03*
%TD*%
D14*
%TO.C,C16*%
X11748800Y12280000D03*
X11748800Y12920000D03*
%TD*%
D21*
%TO.C,C14*%
X17028800Y18200000D03*
X16068800Y18200000D03*
%TD*%
D16*
%TO.C,C21*%
X13268800Y15400000D03*
X12628800Y15400000D03*
%TD*%
D14*
%TO.C,C27*%
X10148800Y12280000D03*
X10148800Y12920000D03*
%TD*%
%TO.C,C26*%
X9348800Y12280000D03*
X9348800Y12920000D03*
%TD*%
D18*
%TO.C,C25*%
X7828800Y13400000D03*
X8468800Y13400000D03*
%TD*%
D14*
%TO.C,C23*%
X16948800Y11080000D03*
X16948800Y11720000D03*
%TD*%
D15*
%TO.C,C20*%
X12148800Y17720000D03*
X12148800Y17080000D03*
%TD*%
D18*
%TO.C,C17*%
X7828800Y17800000D03*
X8468800Y17800000D03*
%TD*%
%TO.C,C15*%
X7828800Y17000000D03*
X8468800Y17000000D03*
%TD*%
D16*
%TO.C,C12*%
X16868800Y17400000D03*
X16228800Y17400000D03*
%TD*%
%TO.C,C10*%
X16868800Y16600000D03*
X16228800Y16600000D03*
%TD*%
D22*
%TO.C,C3*%
X8948800Y21480000D03*
X8948800Y20520000D03*
%TD*%
D15*
%TO.C,C11*%
X3348800Y12520000D03*
X3348800Y11880000D03*
%TD*%
D23*
%TO.C,C9*%
X11698800Y8520000D03*
X11698800Y9480000D03*
%TD*%
D21*
%TO.C,C6*%
X17028800Y19200000D03*
X16068800Y19200000D03*
%TD*%
D24*
%TO.C,CN1*%
X26600000Y28750000D03*
X26600000Y24350000D03*
X25800000Y28750000D03*
X25800000Y24350000D03*
X25000000Y28750000D03*
X25000000Y24350000D03*
X24200000Y28750000D03*
X24200000Y24350000D03*
X23400000Y28750000D03*
X23400000Y24350000D03*
X22600000Y28750000D03*
X22600000Y24350000D03*
X21800000Y28750000D03*
X21800000Y24350000D03*
X21000000Y28750000D03*
X21000000Y24350000D03*
X20200000Y28750000D03*
X20200000Y24350000D03*
X19400000Y28750000D03*
X19400000Y24350000D03*
X18600000Y28750000D03*
X18600000Y24350000D03*
X17800000Y28750000D03*
X17800000Y24350000D03*
X17000000Y28750000D03*
X17000000Y24350000D03*
X16200000Y28750000D03*
X16200000Y24350000D03*
X15400000Y28750000D03*
X15400000Y24350000D03*
X14600000Y28750000D03*
X14600000Y24350000D03*
X13800000Y28750000D03*
X13800000Y24350000D03*
X13000000Y28750000D03*
X13000000Y24350000D03*
X12200000Y28750000D03*
X12200000Y24350000D03*
X11400000Y28750000D03*
X11400000Y24350000D03*
X10600000Y28750000D03*
X10600000Y24350000D03*
X9800000Y28750000D03*
X9800000Y24350000D03*
X9000000Y28750000D03*
X9000000Y24350000D03*
X8200000Y28750000D03*
X8200000Y24350000D03*
X7400000Y28750000D03*
X7400000Y24350000D03*
X6600000Y28750000D03*
X6600000Y24350000D03*
X5800000Y28750000D03*
X5800000Y24350000D03*
X5000000Y28750000D03*
X5000000Y24350000D03*
X4200000Y28750000D03*
X4200000Y24350000D03*
X3400000Y28750000D03*
X3400000Y24350000D03*
%TD*%
%TO.C,CN3*%
X26600000Y5650000D03*
X26600000Y1250000D03*
X25800000Y5650000D03*
X25800000Y1250000D03*
X25000000Y5650000D03*
X25000000Y1250000D03*
X24200000Y5650000D03*
X24200000Y1250000D03*
X23400000Y5650000D03*
X23400000Y1250000D03*
X22600000Y5650000D03*
X22600000Y1250000D03*
X21800000Y5650000D03*
X21800000Y1250000D03*
X21000000Y5650000D03*
X21000000Y1250000D03*
X20200000Y5650000D03*
X20200000Y1250000D03*
X19400000Y5650000D03*
X19400000Y1250000D03*
X18600000Y5650000D03*
X18600000Y1250000D03*
X17800000Y5650000D03*
X17800000Y1250000D03*
X17000000Y5650000D03*
X17000000Y1250000D03*
X16200000Y5650000D03*
X16200000Y1250000D03*
X15400000Y5650000D03*
X15400000Y1250000D03*
X14600000Y5650000D03*
X14600000Y1250000D03*
X13800000Y5650000D03*
X13800000Y1250000D03*
X13000000Y5650000D03*
X13000000Y1250000D03*
X12200000Y5650000D03*
X12200000Y1250000D03*
X11400000Y5650000D03*
X11400000Y1250000D03*
X10600000Y5650000D03*
X10600000Y1250000D03*
X9800000Y5650000D03*
X9800000Y1250000D03*
X9000000Y5650000D03*
X9000000Y1250000D03*
X8200000Y5650000D03*
X8200000Y1250000D03*
X7400000Y5650000D03*
X7400000Y1250000D03*
X6600000Y5650000D03*
X6600000Y1250000D03*
X5800000Y5650000D03*
X5800000Y1250000D03*
X5000000Y5650000D03*
X5000000Y1250000D03*
X4200000Y5650000D03*
X4200000Y1250000D03*
X3400000Y5650000D03*
X3400000Y1250000D03*
%TD*%
%LPD*%
M02*
