%TF.GenerationSoftware,KiCad,Pcbnew,9.0.6-r1*%
%TF.CreationDate,2025-12-20T23:12:14+08:00*%
%TF.ProjectId,H750XB_V2,48373530-5842-45f5-9632-2e6b69636164,rev?*%
%TF.SameCoordinates,Original*%
%TF.FileFunction,Profile,NP*%
%FSLAX46Y46*%
G04 Gerber Fmt 4.6, Leading zero omitted, Abs format (unit mm)*
G04 Created by KiCad (PCBNEW 9.0.6-r1) date 2025-12-20 23:12:14*
%MOMM*%
%LPD*%
G01*
G04 APERTURE LIST*
%TA.AperFunction,Profile*%
%ADD10C,0.050000*%
%TD*%
%TA.AperFunction,Profile*%
%ADD11C,0.000000*%
%TD*%
G04 APERTURE END LIST*
D10*
X0Y30000000D02*
X30000000Y30000000D01*
X30000000Y0D01*
X0Y0D01*
X0Y30000000D01*
D11*
%TA.AperFunction,Profile*%
%TO.C,CN1*%
G36*
X1072208Y26965746D02*
G01*
X1173943Y26907009D01*
X1257009Y26823943D01*
X1315746Y26722208D01*
X1346150Y26608737D01*
X1346150Y26491263D01*
X1315746Y26377792D01*
X1257009Y26276057D01*
X1173943Y26192991D01*
X1072208Y26134254D01*
X958737Y26103850D01*
X841263Y26103850D01*
X727792Y26134254D01*
X626057Y26192991D01*
X542991Y26276057D01*
X484254Y26377792D01*
X453850Y26491263D01*
X453850Y26608737D01*
X484254Y26722208D01*
X542991Y26823943D01*
X626057Y26907009D01*
X727792Y26965746D01*
X841263Y26996150D01*
X958737Y26996150D01*
X1072208Y26965746D01*
G37*
%TD.AperFunction*%
%TA.AperFunction,Profile*%
G36*
X29288685Y27172011D02*
G01*
X29406408Y27123249D01*
X29512356Y27052457D01*
X29602457Y26962356D01*
X29673249Y26856408D01*
X29722011Y26738685D01*
X29746870Y26613711D01*
X29746870Y26486289D01*
X29722011Y26361315D01*
X29673249Y26243592D01*
X29602457Y26137644D01*
X29512356Y26047543D01*
X29406408Y25976751D01*
X29288685Y25927989D01*
X29163711Y25903130D01*
X29036289Y25903130D01*
X28911315Y25927989D01*
X28793592Y25976751D01*
X28687644Y26047543D01*
X28597543Y26137644D01*
X28526751Y26243592D01*
X28477989Y26361315D01*
X28453130Y26486289D01*
X28453130Y26613711D01*
X28477989Y26738685D01*
X28526751Y26856408D01*
X28597543Y26962356D01*
X28687644Y27052457D01*
X28793592Y27123249D01*
X28911315Y27172011D01*
X29036289Y27196870D01*
X29163711Y27196870D01*
X29288685Y27172011D01*
G37*
%TD.AperFunction*%
%TA.AperFunction,Profile*%
%TO.C,CN3*%
G36*
X1072208Y3865746D02*
G01*
X1173943Y3807009D01*
X1257009Y3723943D01*
X1315746Y3622208D01*
X1346150Y3508737D01*
X1346150Y3391263D01*
X1315746Y3277792D01*
X1257009Y3176057D01*
X1173943Y3092991D01*
X1072208Y3034254D01*
X958737Y3003850D01*
X841263Y3003850D01*
X727792Y3034254D01*
X626057Y3092991D01*
X542991Y3176057D01*
X484254Y3277792D01*
X453850Y3391263D01*
X453850Y3508737D01*
X484254Y3622208D01*
X542991Y3723943D01*
X626057Y3807009D01*
X727792Y3865746D01*
X841263Y3896150D01*
X958737Y3896150D01*
X1072208Y3865746D01*
G37*
%TD.AperFunction*%
%TA.AperFunction,Profile*%
G36*
X29288685Y4072011D02*
G01*
X29406408Y4023249D01*
X29512356Y3952457D01*
X29602457Y3862356D01*
X29673249Y3756408D01*
X29722011Y3638685D01*
X29746870Y3513711D01*
X29746870Y3386289D01*
X29722011Y3261315D01*
X29673249Y3143592D01*
X29602457Y3037644D01*
X29512356Y2947543D01*
X29406408Y2876751D01*
X29288685Y2827989D01*
X29163711Y2803130D01*
X29036289Y2803130D01*
X28911315Y2827989D01*
X28793592Y2876751D01*
X28687644Y2947543D01*
X28597543Y3037644D01*
X28526751Y3143592D01*
X28477989Y3261315D01*
X28453130Y3386289D01*
X28453130Y3513711D01*
X28477989Y3638685D01*
X28526751Y3756408D01*
X28597543Y3862356D01*
X28687644Y3952457D01*
X28793592Y4023249D01*
X28911315Y4072011D01*
X29036289Y4096870D01*
X29163711Y4096870D01*
X29288685Y4072011D01*
G37*
%TD.AperFunction*%
%TD*%
M02*
