%TF.GenerationSoftware,KiCad,Pcbnew,9.0.6-r1*%
%TF.CreationDate,2025-12-20T23:12:14+08:00*%
%TF.ProjectId,H750XB_V2,48373530-5842-45f5-9632-2e6b69636164,rev?*%
%TF.SameCoordinates,Original*%
%TF.FileFunction,Plated,1,4,PTH,Drill*%
%TF.FilePolarity,Positive*%
%FSLAX46Y46*%
G04 Gerber Fmt 4.6, Leading zero omitted, Abs format (unit mm)*
G04 Created by KiCad (PCBNEW 9.0.6-r1) date 2025-12-20 23:12:14*
%MOMM*%
%LPD*%
G01*
G04 APERTURE LIST*
%TA.AperFunction,ViaDrill*%
%ADD10C,0.300000*%
%TD*%
G04 APERTURE END LIST*
D10*
X454000Y13900000D03*
X454000Y9900000D03*
X498800Y1200000D03*
X748800Y24550000D03*
X948800Y25150000D03*
X948800Y9000000D03*
X948800Y5700000D03*
X948800Y4900000D03*
X998800Y27700000D03*
X1248800Y1200000D03*
X1248800Y550000D03*
X1548800Y7850000D03*
X1548800Y6400000D03*
X1598800Y4800000D03*
X1748800Y22200000D03*
X1748800Y21480000D03*
X1948800Y1950000D03*
X2048800Y19100000D03*
X2348800Y8250000D03*
X2448800Y8850000D03*
X2548800Y29050000D03*
X2548800Y27700000D03*
X2548800Y25200000D03*
X2548800Y24000000D03*
X2548800Y18200000D03*
X2548800Y12600000D03*
X2548800Y11800000D03*
X3248800Y21900000D03*
X3248800Y20850000D03*
X3248800Y19200000D03*
X3248800Y18200000D03*
X3248800Y17300000D03*
X3348800Y11223100D03*
X3398800Y26850000D03*
X3548800Y13800000D03*
X3648800Y13100000D03*
X3748800Y18600000D03*
X3748800Y16200000D03*
X3748800Y14600000D03*
X3848800Y17700000D03*
X3848800Y16900000D03*
X3948800Y22850000D03*
X4148800Y8100000D03*
X4198800Y26850000D03*
X4548800Y21000000D03*
X4548800Y18600000D03*
X4548800Y17000000D03*
X4548800Y16200000D03*
X4548800Y14600000D03*
X4548800Y13800000D03*
X4648800Y17700000D03*
X5000000Y2502400D03*
X5348800Y19400000D03*
X5348800Y18600000D03*
X5348800Y17800000D03*
X5348800Y17000000D03*
X5348800Y16200000D03*
X5348800Y15400000D03*
X5348800Y13800000D03*
X5348800Y12200000D03*
X5348800Y11400000D03*
X5348800Y10600000D03*
X5798800Y27350000D03*
X5800000Y4400000D03*
X5800000Y2500000D03*
X6148800Y19400000D03*
X6148800Y18600000D03*
X6148800Y17800000D03*
X6148800Y16200000D03*
X6148800Y15400000D03*
X6148800Y13800000D03*
X6148800Y13000000D03*
X6148800Y12200000D03*
X6148800Y11400000D03*
X6148800Y10600000D03*
X6148800Y9800000D03*
X6198800Y26050000D03*
X6598800Y27350000D03*
X6598800Y22750000D03*
X6600000Y4400000D03*
X6600000Y2500000D03*
X6948800Y20200000D03*
X6948800Y19400000D03*
X6948800Y18600000D03*
X6948800Y17800000D03*
X6948800Y16200000D03*
X6948800Y15400000D03*
X6948800Y13800000D03*
X6948800Y13000000D03*
X6948800Y12200000D03*
X6948800Y11400000D03*
X6948800Y10600000D03*
X7398800Y26850000D03*
X7398800Y26200000D03*
X7400000Y23550000D03*
X7400000Y4400000D03*
X7400000Y2500000D03*
X7748800Y13800000D03*
X7748800Y13000000D03*
X7748800Y12200000D03*
X7748800Y11400000D03*
X7748800Y10600000D03*
X7828800Y17400000D03*
X7848800Y15800000D03*
X8098800Y26300000D03*
X8148800Y22000000D03*
X8198800Y3850000D03*
X8200000Y27500000D03*
X8200000Y25600000D03*
X8200000Y2500000D03*
X8548800Y20200000D03*
X8548800Y19400000D03*
X8548800Y18600000D03*
X8548800Y7300000D03*
X8948800Y22000000D03*
X8948800Y12200000D03*
X8998800Y23550000D03*
X9000000Y27500000D03*
X9000000Y2500000D03*
X9348800Y19400000D03*
X9348800Y18600000D03*
X9348800Y17800000D03*
X9348800Y16200000D03*
X9348800Y14550000D03*
X9348800Y13800000D03*
X9348800Y10600000D03*
X9348800Y9800000D03*
X9648800Y7750000D03*
X9748800Y12200000D03*
X9798800Y26600000D03*
X9800000Y27500000D03*
X9800000Y2500000D03*
X10148800Y11400000D03*
X10148800Y10600000D03*
X10598800Y26450000D03*
X10598800Y25350000D03*
X10600000Y27500000D03*
X10948800Y20200000D03*
X10948800Y19400000D03*
X10948800Y18600000D03*
X10998800Y17700000D03*
X11348800Y22150000D03*
X11348800Y12200000D03*
X11398800Y26300000D03*
X11398800Y25350000D03*
X11400000Y27500000D03*
X11698800Y17700000D03*
X11748800Y18600000D03*
X11748800Y16200000D03*
X11748800Y15400000D03*
X11748800Y14600000D03*
X12148800Y12200000D03*
X12148800Y7900000D03*
X12198800Y25350000D03*
X12200000Y27500000D03*
X12548800Y19400000D03*
X12548800Y18600000D03*
X12548800Y17700000D03*
X12548800Y10600000D03*
X12548800Y9800000D03*
X12548800Y9000000D03*
X12598800Y26100000D03*
X12948800Y7900000D03*
X12998800Y25350000D03*
X13000000Y27500000D03*
X13348800Y19400000D03*
X13348800Y18600000D03*
X13348800Y15800000D03*
X13348800Y15000000D03*
X13348800Y14200000D03*
X13348800Y13400000D03*
X13348800Y12200000D03*
X13348800Y11400000D03*
X13348800Y10600000D03*
X13748800Y7500000D03*
X13800000Y27500000D03*
X14148800Y19400000D03*
X14148800Y18600000D03*
X14148800Y17900000D03*
X14148800Y16200000D03*
X14148800Y15400000D03*
X14148800Y13800000D03*
X14148800Y12200000D03*
X14148800Y11400000D03*
X14148800Y10600000D03*
X14148800Y9800000D03*
X14148800Y9000000D03*
X14148800Y8000000D03*
X14548800Y7500000D03*
X14598800Y25900000D03*
X14600000Y27500000D03*
X14600000Y2500000D03*
X14948800Y19400000D03*
X14948800Y18600000D03*
X14948800Y17900000D03*
X14948800Y15400000D03*
X14948800Y14600000D03*
X14948800Y13800000D03*
X14948800Y13000000D03*
X14948800Y12200000D03*
X14948800Y10600000D03*
X14948800Y8000000D03*
X15348800Y7500000D03*
X15398800Y22100000D03*
X15400000Y27500000D03*
X15400000Y2500000D03*
X15748800Y20200000D03*
X15748800Y15400000D03*
X15748800Y12200000D03*
X15748800Y8000000D03*
X15848800Y16900000D03*
X16200000Y27500000D03*
X16200000Y2500000D03*
X16548800Y15000000D03*
X16548800Y13800000D03*
X16798800Y4250000D03*
X17000000Y27500000D03*
X17000000Y2500000D03*
X17248800Y8300000D03*
X17298800Y21400000D03*
X17448800Y17400000D03*
X17448800Y16600000D03*
X17448800Y15000000D03*
X17448800Y13600000D03*
X17648800Y19800000D03*
X17648800Y19000000D03*
X17648800Y10200000D03*
X17648800Y9400000D03*
X17800000Y27500000D03*
X17800000Y4150000D03*
X17848800Y11000000D03*
X17898800Y21200000D03*
X17998800Y11600000D03*
X18148800Y15000000D03*
X18448800Y22950000D03*
X18448800Y11150000D03*
X18548800Y21215103D03*
X18548800Y20600000D03*
X18598800Y25600000D03*
X18600000Y27500000D03*
X18600000Y4150000D03*
X18600000Y2500000D03*
X18998800Y19400000D03*
X19048800Y17100000D03*
X19396400Y20550000D03*
X19400000Y27500000D03*
X19400000Y4150000D03*
X19400000Y2500000D03*
X19448800Y15600000D03*
X19498800Y16600000D03*
X19848800Y14600000D03*
X19848800Y13150000D03*
X20001200Y20550000D03*
X20048800Y12400000D03*
X20098800Y17100000D03*
X20200000Y27500000D03*
X20200000Y25600000D03*
X20200000Y2500000D03*
X20248800Y19950000D03*
X20548800Y19400000D03*
X20548800Y15600000D03*
X21000000Y27500000D03*
X21000000Y25600000D03*
X21148800Y20800000D03*
X21148800Y20000000D03*
X21148800Y19200000D03*
X21148800Y18400000D03*
X21148800Y14400000D03*
X21248800Y13600000D03*
X21248800Y12800000D03*
X21748800Y8900000D03*
X21800000Y27500000D03*
X21800000Y25600000D03*
X22148800Y22000000D03*
X22198800Y7450000D03*
X22598800Y25600000D03*
X22600000Y27500000D03*
X22914800Y11618000D03*
X22948800Y14800000D03*
X22948800Y13200000D03*
X23398800Y25750000D03*
X23748800Y22000000D03*
X23748800Y18000000D03*
X23748800Y15600000D03*
X23748800Y14800000D03*
X23748800Y3800000D03*
X23948800Y13350000D03*
X23948800Y12700000D03*
X23948800Y12000000D03*
X23948800Y11200000D03*
X24098800Y19200000D03*
X24348800Y16400000D03*
X24448800Y15600000D03*
X24948800Y18000000D03*
X25048800Y25750000D03*
X25098800Y20400000D03*
X25098800Y19600000D03*
X25148800Y8900000D03*
X25248800Y13760000D03*
X25348800Y18500000D03*
X25348800Y12000000D03*
X25348800Y11200000D03*
X25498800Y3750000D03*
X25548800Y26200000D03*
X25548800Y20950000D03*
X25548800Y8400000D03*
X25698800Y9300000D03*
X25798800Y23000000D03*
X25798800Y19600000D03*
X25800000Y27500000D03*
X26048800Y16000000D03*
X26048800Y15200000D03*
X26048800Y14400000D03*
X26148800Y22000000D03*
X26148800Y18000000D03*
X26348800Y9400000D03*
X26548800Y22900000D03*
X26598800Y25750000D03*
X26600000Y27500000D03*
X26648800Y7300000D03*
X26948800Y18800000D03*
X26948800Y18000000D03*
X26948800Y17200000D03*
X26948800Y16400000D03*
X26948800Y15600000D03*
X26948800Y14800000D03*
X26948800Y14000000D03*
X26948800Y11600000D03*
X27198800Y25150000D03*
X27298800Y26800000D03*
X27348800Y9500000D03*
X27568800Y3380000D03*
X27698800Y28450000D03*
X27698800Y27350000D03*
X27748800Y23800000D03*
X27748800Y22000000D03*
X27748800Y17200000D03*
X27748800Y16400000D03*
X27748800Y15600000D03*
X27748800Y11600000D03*
X28098800Y27950000D03*
X28098800Y2400000D03*
X28248800Y9800000D03*
X28548800Y12400000D03*
X28648800Y29100000D03*
X28748800Y20000000D03*
X28748800Y19200000D03*
X28748800Y18400000D03*
X28748800Y17200000D03*
X28748800Y13600000D03*
X28772671Y20720000D03*
X28798800Y9200000D03*
X28903600Y16000000D03*
X29218600Y16800000D03*
X29345600Y17564600D03*
X29348800Y28450000D03*
X29348800Y25300000D03*
X29348800Y19600000D03*
X29348800Y9800000D03*
X29348800Y8400000D03*
X29448800Y4700000D03*
M02*
